<?xml version="1.0" standalone="no"?>
<!DOCTYPE svg PUBLIC "-//W3C//DTD SVG 20010904//EN"
 "http://www.w3.org/TR/2001/REC-SVG-20010904/DTD/svg10.dtd">
<svg version="1.0" xmlns="http://www.w3.org/2000/svg"
 width="1620.000000pt" height="1620.000000pt" viewBox="0 0 1620.000000 1620.000000"
 preserveAspectRatio="xMidYMid meet">
<metadata>
Created by potrace 1.11, written by Peter Selinger 2001-2013
</metadata>
<g transform="translate(0.000000,1620.000000) scale(0.100000,-0.100000)"
fill="#000000" stroke="none">
<path d="M7807 14904 c-1 -1 -85 -5 -187 -9 -102 -3 -198 -8 -215 -10 -16 -2
-75 -6 -129 -10 -55 -4 -107 -8 -116 -10 -9 -2 -53 -6 -96 -10 -43 -4 -92 -9
-109 -11 -16 -2 -55 -6 -85 -9 -30 -3 -102 -13 -160 -21 -58 -8 -121 -17 -140
-20 -19 -3 -57 -9 -85 -14 -27 -5 -66 -12 -85 -14 -47 -8 -79 -14 -190 -37
-52 -11 -106 -22 -120 -24 -79 -15 -442 -109 -525 -135 -297 -95 -591 -204
-726 -270 -32 -15 -59 -27 -59 -25 0 3 -288 -142 -375 -190 -395 -217 -805
-543 -972 -773 l-46 -63 23 -107 c13 -59 41 -168 62 -242 22 -74 41 -142 43
-150 2 -8 21 -80 43 -160 34 -126 44 -163 58 -215 1 -5 16 -64 33 -130 18 -66
33 -127 36 -135 2 -8 13 -53 24 -100 11 -47 34 -143 51 -215 33 -136 37 -154
45 -196 2 -14 18 -85 35 -158 16 -73 32 -143 34 -155 2 -11 16 -77 30 -146 14
-69 41 -208 60 -310 34 -180 40 -215 51 -282 5 -31 21 -120 29 -163 2 -11 7
-42 10 -68 4 -27 9 -59 12 -70 2 -12 6 -40 9 -62 3 -22 7 -49 9 -60 2 -11 7
-42 10 -70 4 -27 9 -61 11 -75 2 -14 6 -46 9 -72 3 -27 9 -69 12 -95 11 -80
12 -96 19 -163 4 -36 8 -76 11 -90 2 -14 6 -56 9 -95 4 -38 8 -83 10 -100 2
-16 7 -68 10 -115 4 -47 8 -103 10 -125 13 -137 20 -383 20 -670 0 -293 -5
-420 -20 -575 -21 -220 -25 -249 -71 -505 -27 -153 -34 -195 -39 -230 -3 -23
-7 -50 -9 -60 -2 -11 -7 -47 -11 -80 -4 -32 -8 -66 -10 -75 -2 -8 -6 -44 -10
-80 -4 -36 -8 -77 -10 -93 -2 -15 -7 -62 -10 -105 -4 -42 -9 -93 -10 -112 -27
-275 -26 -1027 0 -1260 2 -19 7 -66 10 -105 6 -66 9 -95 20 -187 3 -21 7 -57
10 -80 3 -24 7 -59 10 -78 5 -41 44 -277 51 -312 2 -13 7 -36 10 -53 3 -16 9
-48 14 -70 5 -22 12 -56 15 -75 10 -59 103 -430 130 -520 51 -164 118 -366
152 -455 248 -649 561 -1195 953 -1661 107 -128 321 -356 327 -350 2 2 -7 33
-21 68 -90 229 -190 596 -236 868 -12 69 -23 136 -25 150 -3 14 -7 54 -10 90
-3 36 -8 72 -10 80 -18 70 -27 598 -12 775 25 301 84 593 174 870 30 94 59
175 62 180 4 6 16 33 26 60 54 148 191 406 305 575 95 140 296 387 407 498
l105 105 -74 -6 c-85 -7 -191 -39 -338 -105 -104 -46 -240 -118 -250 -132 -3
-4 -30 -18 -60 -31 -56 -24 -69 -25 -253 -16 -55 2 -28 27 -300 -270 -53 -59
-57 -61 -57 -35 1 49 45 134 139 270 l93 133 -23 34 c-13 19 -34 39 -47 45
-22 9 -31 4 -103 -67 -43 -42 -107 -117 -142 -166 -34 -49 -67 -96 -73 -105
-18 -25 3 89 32 178 28 84 68 166 126 255 36 55 39 64 33 107 -3 26 -17 71
-30 100 -14 29 -25 63 -25 76 0 29 40 113 78 167 16 22 63 92 105 155 65 99
123 168 187 222 26 22 79 58 85 58 3 0 76 34 162 75 85 41 156 75 158 75 2 0
65 30 141 66 77 36 159 75 184 86 160 73 379 183 399 201 13 12 32 41 41 64
16 36 60 199 74 273 3 14 15 72 26 130 12 58 23 116 25 130 2 14 10 66 19 115
9 50 20 134 26 188 16 157 23 175 101 260 48 52 102 96 177 143 450 286 1045
737 1442 1093 157 141 170 152 273 251 185 177 363 358 479 489 71 79 96 57
63 -53 -25 -84 -136 -254 -358 -551 -82 -110 -85 -130 -18 -122 76 10 263 85
441 179 130 68 469 267 575 337 39 25 75 48 80 51 11 6 137 91 355 241 126 86
205 128 218 115 8 -9 -31 -82 -70 -130 -112 -135 -258 -268 -404 -366 -120
-81 -335 -272 -322 -286 8 -8 102 26 343 123 246 99 324 133 405 176 243 129
697 344 706 335 6 -7 -17 -71 -32 -89 -8 -8 -14 -19 -14 -24 0 -19 -78 -123
-132 -176 -43 -42 -93 -75 -190 -127 -224 -117 -512 -297 -505 -315 5 -14 -6
-16 142 23 349 93 701 196 867 254 103 36 194 66 203 66 10 0 15 -10 15 -34 0
-34 -4 -37 -98 -90 -54 -31 -136 -72 -182 -92 -91 -39 -126 -62 -75 -49 30 7
73 14 109 18 29 3 29 -17 0 -52 -35 -42 -89 -72 -209 -116 -129 -48 -282 -122
-289 -141 -5 -12 -1 -14 17 -9 36 10 120 37 142 45 18 7 220 80 419 151 44 16
91 29 104 29 21 0 22 -1 8 -28 -19 -37 -83 -102 -137 -139 -42 -29 -72 -43
-204 -93 -87 -33 -205 -94 -307 -156 -48 -31 -88 -56 -88 -57 0 -1 48 -2 108
-3 181 -2 312 -23 312 -52 0 -19 -43 -63 -86 -88 -65 -38 -158 -65 -244 -69
-208 -12 -290 -25 -290 -45 0 -5 3 -11 8 -13 14 -8 213 -26 342 -31 34 -1 55
-6 55 -13 0 -22 -97 -124 -158 -165 -34 -23 -91 -52 -126 -63 -59 -19 -92 -45
-59 -45 7 0 20 -4 28 -10 11 -7 2 -20 -45 -67 -70 -68 -177 -158 -206 -174
-12 -6 -38 -13 -58 -14 -20 -2 -65 -7 -101 -10 -36 -3 -85 -11 -110 -16 -25
-6 -58 -12 -75 -14 -60 -7 -200 -38 -209 -46 -16 -14 40 -28 132 -32 99 -4
112 -9 112 -40 0 -32 -30 -76 -149 -221 -58 -70 -131 -160 -162 -198 -83 -102
-139 -133 -319 -178 -101 -25 -141 -41 -137 -55 6 -18 50 -34 125 -47 57 -9
72 -15 72 -29 0 -10 -43 -103 -96 -207 l-95 -190 -66 19 c-37 10 -69 17 -71
14 -3 -2 13 -25 34 -51 69 -82 69 -66 5 -198 l-58 -118 60 -62 c60 -62 200
-223 272 -311 22 -27 51 -62 65 -79 297 -359 687 -990 825 -1336 55 -138 125
-356 150 -467 2 -10 15 -63 29 -118 105 -426 131 -971 65 -1365 -5 -30 -11
-73 -15 -95 -3 -22 -9 -58 -14 -80 -5 -22 -12 -56 -15 -75 -12 -71 -75 -299
-118 -430 -74 -222 -155 -420 -278 -679 -38 -79 -69 -146 -69 -148 0 -4 32 28
204 207 214 223 508 620 676 915 279 487 480 973 629 1520 36 133 103 418 117
500 2 17 13 75 24 130 10 55 21 120 24 145 3 25 7 54 10 65 2 11 7 45 10 76 4
31 8 65 10 75 2 11 7 51 11 89 4 39 8 84 10 100 25 221 38 491 39 790 0 215
-10 515 -19 592 -1 15 -6 66 -10 113 -4 47 -8 99 -10 115 -2 17 -7 59 -10 95
-4 36 -8 76 -10 90 -2 14 -7 48 -11 75 -3 28 -8 57 -9 66 -2 9 -6 40 -10 70
-3 30 -8 61 -10 69 -2 8 -7 31 -10 50 -3 19 -10 58 -15 85 -20 105 -49 282
-56 340 -3 33 -8 68 -10 78 -2 11 -6 58 -9 105 -4 48 -8 98 -10 112 -21 128
-21 775 0 1070 2 25 6 90 10 145 3 55 8 111 10 125 2 14 6 57 10 95 7 90 14
160 21 210 7 60 13 105 19 160 9 86 15 136 19 164 3 14 7 46 11 71 3 25 8 56
10 70 3 14 7 45 10 70 3 25 14 97 24 160 11 63 22 133 25 155 4 23 9 52 11 65
3 14 12 66 20 115 19 111 43 235 56 295 5 25 12 56 14 70 18 95 60 302 80 390
13 58 26 116 29 130 9 47 16 75 35 155 11 44 22 91 24 105 8 45 128 521 173
690 25 91 67 251 94 355 27 105 65 242 83 306 l34 117 -60 73 c-180 221 -491
482 -805 677 -181 113 -198 122 -387 216 -248 123 -371 176 -590 256 -159 58
-488 159 -575 176 -14 3 -47 11 -75 19 -27 8 -61 16 -75 19 -14 3 -88 18 -165
35 -140 30 -159 34 -225 45 -19 3 -48 8 -65 11 -16 3 -46 8 -65 11 -19 2 -46
7 -60 9 -14 3 -61 9 -105 15 -44 6 -91 13 -105 15 -27 4 -93 12 -180 20 -30 3
-77 7 -105 10 -119 12 -145 15 -235 20 -118 8 -217 12 -437 20 l-171 6 0 -639
1 -639 99 -1 c54 0 111 -3 127 -7 32 -7 75 -49 86 -84 10 -31 9 -1881 0 -1912
-11 -36 -54 -77 -89 -85 -17 -4 -71 -8 -121 -10 -49 -1 -93 -2 -96 -3 -4 0 -6
-233 -6 -516 0 -284 -3 -519 -7 -522 -3 -3 -49 -7 -101 -7 -88 -1 -95 0 -96
19 0 11 -1 247 -2 524 l-2 505 -113 2 c-123 2 -142 9 -186 68 -21 27 -21 34
-21 979 1 732 4 957 13 974 7 12 28 34 47 49 32 24 41 26 148 26 l115 1 0 639
0 638 -26 1 c-15 0 -46 1 -70 2 -24 2 -44 2 -45 1z m-1674 -3115 c-2 -26 -6
-45 -28 -143 -8 -33 -16 -73 -19 -89 -3 -15 -7 -35 -10 -45 -3 -9 -8 -28 -10
-42 -3 -14 -10 -43 -15 -65 -5 -22 -12 -51 -14 -65 -3 -14 -22 -97 -42 -185
-52 -230 -51 -268 7 -163 77 138 92 166 134 235 24 40 44 75 44 77 0 5 125
208 182 296 20 30 45 63 57 74 20 18 21 18 32 -10 12 -28 16 -123 9 -214 -3
-47 -49 -141 -221 -457 -112 -203 -115 -222 -23 -135 93 88 239 220 267 242
l27 21 0 -64 c0 -138 -82 -347 -192 -494 -105 -138 -138 -203 -105 -203 23 0
112 81 176 160 13 16 23 22 29 15 5 -5 17 -57 26 -115 21 -128 23 -143 30
-200 3 -25 8 -54 10 -65 2 -11 7 -48 11 -82 l6 -61 -100 -200 c-56 -110 -101
-205 -101 -211 0 -6 8 -11 18 -11 12 0 45 36 92 100 41 55 79 100 85 100 21
-1 42 -26 48 -60 3 -19 17 -100 31 -180 14 -80 28 -163 32 -185 3 -22 14 -70
24 -107 24 -87 14 -147 -45 -283 -12 -27 -25 -62 -29 -77 -10 -43 20 -36 82
18 29 25 59 44 66 41 8 -3 24 -24 37 -46 13 -22 50 -83 81 -135 71 -116 122
-238 112 -269 -6 -19 -59 -88 -117 -152 -41 -45 -53 -92 -62 -253 -3 -37 -7
-83 -10 -102 -2 -19 -7 -57 -11 -85 -3 -27 -7 -57 -9 -65 -2 -8 -7 -40 -10
-70 -24 -208 -84 -480 -125 -559 -29 -58 -34 -61 -455 -276 -459 -235 -639
-325 -642 -322 -1 2 4 12 13 23 85 108 206 331 250 459 37 112 82 293 79 324
-17 188 -78 367 -218 640 -144 282 -231 419 -419 657 -88 113 -92 121 -103
229 -11 113 -15 170 -20 310 -7 203 -15 348 -19 370 -2 11 -7 55 -11 98 -3 43
-8 88 -10 100 -5 31 -14 121 -20 192 -3 33 -8 72 -11 88 -3 15 -7 66 -9 113
-3 82 -1 89 34 157 48 93 170 298 188 317 13 13 14 -5 8 -140 -9 -190 -8 -291
4 -303 14 -14 43 62 47 122 2 31 5 109 8 173 6 130 19 220 40 288 26 81 55
152 69 169 77 93 223 252 243 266 l27 17 -6 -73 c-3 -41 -9 -85 -12 -99 -3
-14 -8 -38 -10 -55 -3 -16 -12 -61 -20 -100 -7 -38 -16 -95 -20 -125 -3 -30
-8 -63 -11 -73 -10 -33 -7 -244 4 -263 8 -15 13 -6 30 52 16 54 75 286 97 384
8 34 105 383 135 485 18 61 33 117 35 125 8 38 49 146 60 159 21 22 169 110
180 107 6 -2 9 -14 8 -27z"/>
<path d="M8070 6819 c-322 -216 -500 -488 -503 -769 -2 -197 17 -268 183 -675
204 -501 235 -686 148 -871 -50 -108 -182 -194 -366 -238 -201 -48 -380 1
-522 144 -133 134 -172 305 -102 454 17 36 27 66 23 66 -20 0 -195 -143 -299
-244 -229 -222 -380 -450 -480 -726 -35 -95 -78 -259 -88 -335 -3 -27 -8 -59
-11 -70 -3 -11 -6 -103 -8 -205 -3 -167 2 -258 20 -368 4 -20 8 -48 10 -62 38
-257 205 -666 374 -920 63 -94 167 -231 213 -280 13 -14 46 -52 73 -85 73 -86
229 -241 316 -310 40 -33 76 -63 79 -66 23 -28 274 -180 390 -237 299 -145
355 -153 551 -74 134 53 368 164 434 206 l40 24 -30 7 c-85 18 -271 84 -350
123 -185 93 -350 227 -476 388 -16 22 -36 46 -43 55 -26 32 -110 175 -137 234
-23 51 -46 119 -49 147 -1 4 -6 22 -11 40 -21 74 -29 278 -14 378 43 304 188
533 404 641 52 25 111 44 203 65 53 12 278 11 353 -1 383 -64 656 -316 653
-604 -1 -136 -64 -264 -163 -330 -45 -31 -127 -67 -171 -76 -16 -3 -42 -9 -59
-13 -51 -11 -296 -6 -373 7 -40 7 -75 11 -77 9 -7 -6 63 -77 143 -145 213
-183 452 -309 682 -358 91 -19 228 -27 252 -14 20 11 148 142 209 214 19 22
37 42 40 45 11 10 157 207 196 265 159 237 335 628 369 820 3 17 10 50 15 74
5 24 12 67 15 95 2 28 7 69 9 91 10 82 4 275 -10 365 -2 14 -7 45 -10 70 -15
101 -76 315 -123 425 -106 250 -279 534 -477 780 -192 238 -302 351 -645 661
-117 105 -384 377 -446 454 -73 90 -160 223 -197 303 -60 129 -86 300 -64 430
10 60 3 60 -93 -4z"/>
<path d="M5533 6028 c-13 -17 -98 -196 -108 -226 -7 -24 0 -25 72 -12 9 1 47
50 55 70 12 30 12 144 0 166 -7 12 -10 13 -19 2z"/>
</g>
</svg>
